# xmcd
#
# Track frame offsets:
#	150
#	14401
#	29402
#	45603
#	59854
#	73655
#
# Disc length: 1172 seconds
#
# Revision: 0
# Processed by: cddbd v1.4PL0 Copyright (c) Steve Scherf et al.
# Submitted via: EasyCDDAExtractor 5.0.5.1
#
DISCID=55049206
DTITLE=C.P. Grun - St. Roli's Day
DYEAR=2002
DGENRE=Blues
TTITLE0=St. Roli's Day
TTITLE1=Candy Darling Blues
TTITLE2=Mabel
TTITLE3=St. Roli's Day (Guinness version)
TTITLE4=He Was A Soldier
TTITLE5=St. Roli's Day (Roli's version)
EXTD=
EXTT0=
EXTT1=
EXTT2=
EXTT3=
EXTT4=
EXTT5=
PLAYORDER=
